# xmcd
#
# Track frame offsets:
#	150
#	33222
#	89462
#	138500
#	162880
#	193920
#	225105
#
# Disc length: 3487 seconds
#
# Revision: 1
# Processed by: cddbd v1.4PL0 Copyright (c) Steve Scherf et al.
# Submitted via: audiograbber 1.82.01
#
DISCID=4f0d9d07
DTITLE=Wael Kfoury - Haflet Fakra
DYEAR=1900
DGENRE=National Folk
TTITLE0=Min Habibi Ana
TTITLE1=Ma Wa3adtik bi Noujoum El Leil
TTITLE2=Awel Marra Baheb
TTITLE3=Sodfe We Iltakayna
TTITLE4=Leil W Ra3ed w Ba3ed W Rih
TTITLE5=Saalouna w Radayna
TTITLE6=Maakoul Tchatti Bi Ab
EXTD=
EXTT0=
EXTT1=
EXTT2=
EXTT3=
EXTT4=
EXTT5=
EXTT6=
PLAYORDER=
